<?xml version="1.0" encoding="UTF-8"?><svg id="Layer_1" xmlns="http://www.w3.org/2000/svg" xmlns:xlink="http://www.w3.org/1999/xlink" viewBox="0 0 1098 257"><defs><style>.cls-1{fill:url(#linear-gradient-2);}.cls-2{fill:url(#linear-gradient-3);}.cls-3{fill:url(#linear-gradient);}.cls-4{fill:#0082ca;}.cls-5{fill:#231f20;}</style><linearGradient id="linear-gradient" x1="408.7" y1="68.99" x2="416.55" y2="139.5" gradientUnits="userSpaceOnUse"><stop offset="0" stop-color="#001b71"/><stop offset=".26" stop-color="#003e8f"/><stop offset=".58" stop-color="#0063af"/><stop offset=".84" stop-color="#0079c2"/><stop offset="1" stop-color="#0082ca"/></linearGradient><linearGradient id="linear-gradient-2" x1="423.7" y1="24.73" x2="739.82" y2="138.43" gradientUnits="userSpaceOnUse"><stop offset="0" stop-color="#001b71"/><stop offset=".04" stop-color="#003083"/><stop offset=".11" stop-color="#004e9d"/><stop offset=".19" stop-color="#0065b0"/><stop offset=".27" stop-color="#0075bf"/><stop offset=".36" stop-color="#007ec7"/><stop offset=".48" stop-color="#0082ca"/><stop offset=".63" stop-color="#007fc7"/><stop offset=".71" stop-color="#0078bf"/><stop offset=".78" stop-color="#006bb0"/><stop offset=".84" stop-color="#00599c"/><stop offset=".9" stop-color="#004282"/><stop offset=".95" stop-color="#002562"/><stop offset=".96" stop-color="#00205c"/></linearGradient><linearGradient id="linear-gradient-3" x1="744.82" y1="92.2" x2="744.82" y2="16.32" gradientUnits="userSpaceOnUse"><stop offset="0" stop-color="#001b71"/><stop offset=".18" stop-color="#003386"/><stop offset=".55" stop-color="#005daa"/><stop offset=".83" stop-color="#0078c1"/><stop offset="1" stop-color="#0082ca"/></linearGradient></defs><g><polygon class="cls-5" points="43.93 141.99 85.49 141.99 85.49 87.91 172.88 87.91 172.88 60.57 85.49 60.57 85.49 38.71 194.85 38.71 194.85 11.36 43.93 11.36 43.93 141.99"/><polygon class="cls-5" points="252.61 87.91 340 87.91 340 60.57 252.61 60.57 252.61 38.71 361.96 38.71 361.96 11.36 211.05 11.36 211.05 142 364.92 142 364.92 114.65 252.61 114.65 252.61 87.91"/><rect class="cls-5" x="795.59" y="11.36" width="41.56" height="130.63"/><polygon class="cls-5" points="1054.93 11.36 1003.57 11.36 953.67 54.49 903.75 11.36 852.39 11.36 927.98 76.68 852.39 141.99 903.75 141.99 953.67 98.86 1003.57 141.99 1054.93 141.99 979.34 76.68 1054.93 11.36"/></g><g><path class="cls-5" d="M824.39,183.63h-19.65v12.48h19.06v7.09h-19.06v15.51h19.65v7.09h-27.18v-49.27h27.18v7.09Z"/><path class="cls-5" d="M834.14,225.81v-52.59l35.75,37.45v-34.13h7.54v52.3l-35.75-37.45v34.42h-7.54Z"/><path class="cls-5" d="M916.42,183.63h-19.65v12.48h19.06v7.09h-19.06v15.51h19.65v7.09h-27.18v-49.27h27.18v7.09Z"/><path class="cls-5" d="M934.96,176.54c5.98,0,9.83,.74,13,2.88,5.39,3.62,5.84,9.46,5.84,11.6,0,7.09-4.36,12.26-10.93,13.74l15.36,21.05h-9.09l-14.11-20.17h-1.33v20.17h-7.54v-49.27h8.79Zm-1.25,22.6h2.36c2.07,0,10.49-.22,10.49-8.05,0-6.94-6.57-7.61-10.27-7.61h-2.58v15.66Z"/><path class="cls-5" d="M991.09,200.17h20.31v.37c0,8.42-2.51,15.29-7.31,19.94-5.1,4.95-11.15,6.28-16.77,6.28-7.17,0-12.26-2.07-16.77-6.72-4.8-4.95-7.31-11.52-7.31-18.61,0-7.68,3.1-14.33,7.17-18.39,4.21-4.28,10.93-7.39,18.54-7.39,4.43,0,9.01,.96,12.85,3.1,4.06,2.29,6.57,5.17,7.98,7.39l-5.98,4.21c-1.48-2.07-3.69-4.29-6.06-5.61-2.73-1.62-5.69-2.14-8.72-2.14-6.43,0-10.56,2.66-13,5.1-3.25,3.25-5.25,8.5-5.25,13.81,0,4.95,1.85,9.9,5.1,13.37,3.4,3.62,7.61,4.95,12.34,4.95,4.28,0,7.83-1.26,11.01-4.36,2.73-2.66,3.84-5.54,4.14-8.35h-12.26v-6.94Z"/><path class="cls-5" d="M1031.12,204.53l-16.18-28h8.57l11.38,19.72,11.38-19.72h8.57l-16.18,28v21.27h-7.54v-21.27Z"/></g><g><path class="cls-3" d="M431.62,53.77l-.31,87.9-39.17-.34V68.42c16.62-6.19,23.98-8.03,39.48-14.65Z"/><g><path class="cls-1" d="M760.37,110.1c-64.18-5.45-170.27-59.83-229.58-86.38l-.9,2.5c7.02,4.25,26.69,17.55,38.08,24.89-30.95-12.99-45.16-18.83-93.57-37.72-28.24-11.02-65.23,23.38-81.66,39.73,10.63-2.77,35.71-15.44,46.35-12.3,57.02,22.33,138.75,56.78,205.49,81.78l.93-2.48c-13.22-7.19-28.47-14.99-40.2-23.22,47.94,20.3,119.32,51.27,120.8,49.82,8.72-8.57,18.11-17.75,37.58-37.04l-3.31,.43Z"/><path class="cls-2" d="M763.74,11.77l-1.87,88.32c-9.94-.98-19.46-1.71-35.97-6.76l1.84-81.5,36-.06Z"/><path class="cls-4" d="M599.07,34.17c21.89,21.52,107.89,49.87,107.89,49.87v-21.23s-48.66-6.77-107.89-28.64Z"/><path class="cls-4" d="M451.24,68.41l-.99,23.38c69.47,24.08,78.68,27.03,166.2,42.43-95.32-37.85-129.69-51.76-165.21-65.81Z"/></g></g></svg>