<?xml version="1.0" encoding="UTF-8"?><svg id="Layer_1" xmlns="http://www.w3.org/2000/svg" xmlns:xlink="http://www.w3.org/1999/xlink" viewBox="0 0 1078 257"><defs><style>.cls-1{fill:url(#linear-gradient-2);}.cls-2,.cls-3{fill:#fff;}.cls-3{font-family:FuturaPT-Medium, 'Futura PT';font-size:73.86px;}.cls-4{fill:url(#linear-gradient-3);}.cls-5{fill:url(#linear-gradient);}.cls-6{fill:#0082ca;}</style><linearGradient id="linear-gradient" x1="399.72" y1="68.99" x2="407.57" y2="139.5" gradientUnits="userSpaceOnUse"><stop offset="0" stop-color="#001b71"/><stop offset=".26" stop-color="#003e8f"/><stop offset=".58" stop-color="#0063af"/><stop offset=".84" stop-color="#0079c2"/><stop offset="1" stop-color="#0082ca"/></linearGradient><linearGradient id="linear-gradient-2" x1="414.73" y1="24.73" x2="730.84" y2="138.43" gradientUnits="userSpaceOnUse"><stop offset="0" stop-color="#001b71"/><stop offset=".04" stop-color="#003083"/><stop offset=".11" stop-color="#004e9d"/><stop offset=".19" stop-color="#0065b0"/><stop offset=".27" stop-color="#0075bf"/><stop offset=".36" stop-color="#007ec7"/><stop offset=".48" stop-color="#0082ca"/><stop offset=".63" stop-color="#007fc7"/><stop offset=".71" stop-color="#0078bf"/><stop offset=".78" stop-color="#006bb0"/><stop offset=".84" stop-color="#00599c"/><stop offset=".9" stop-color="#004282"/><stop offset=".95" stop-color="#002562"/><stop offset=".96" stop-color="#00205c"/></linearGradient><linearGradient id="linear-gradient-3" x1="735.84" y1="92.2" x2="735.84" y2="16.32" gradientUnits="userSpaceOnUse"><stop offset="0" stop-color="#001b71"/><stop offset=".18" stop-color="#003386"/><stop offset=".55" stop-color="#005daa"/><stop offset=".83" stop-color="#0078c1"/><stop offset="1" stop-color="#0082ca"/></linearGradient></defs><g><polygon class="cls-2" points="34.95 141.99 76.52 141.99 76.52 87.91 163.91 87.91 163.91 60.57 76.52 60.57 76.52 38.71 185.87 38.71 185.87 11.36 34.95 11.36 34.95 141.99"/><polygon class="cls-2" points="243.63 87.91 331.02 87.91 331.02 60.57 243.63 60.57 243.63 38.71 352.99 38.71 352.99 11.36 202.07 11.36 202.07 142 355.94 142 355.94 114.65 243.63 114.65 243.63 87.91"/><rect class="cls-2" x="786.61" y="11.36" width="41.56" height="130.63"/><polygon class="cls-2" points="1045.95 11.36 994.6 11.36 944.69 54.49 894.77 11.36 843.41 11.36 919.01 76.68 843.41 141.99 894.77 141.99 944.69 98.86 994.6 141.99 1045.95 141.99 970.36 76.68 1045.95 11.36"/></g><text class="cls-3" transform="translate(782.32 225.81)"><tspan x="0" y="0">ENERGY</tspan></text><g><path class="cls-5" d="M422.64,53.77l-.31,87.9-39.17-.34V68.42c16.62-6.19,23.98-8.03,39.48-14.65Z"/><g><path class="cls-1" d="M751.4,110.1c-64.18-5.45-170.27-59.83-229.58-86.38l-.9,2.5c7.02,4.25,26.69,17.55,38.08,24.89-30.95-12.99-45.16-18.83-93.57-37.72-28.24-11.02-65.23,23.38-81.66,39.73,10.63-2.77,35.71-15.44,46.35-12.3,57.02,22.33,138.75,56.78,205.49,81.78l.93-2.48c-13.22-7.19-28.47-14.99-40.2-23.22,47.94,20.3,119.32,51.27,120.8,49.82,8.72-8.57,18.11-17.75,37.58-37.04l-3.31,.43Z"/><path class="cls-4" d="M754.76,11.77l-1.87,88.32c-9.94-.98-19.46-1.71-35.97-6.76l1.84-81.5,36-.06Z"/><path class="cls-6" d="M590.09,34.17c21.89,21.52,107.89,49.87,107.89,49.87v-21.23s-48.66-6.77-107.89-28.64Z"/><path class="cls-6" d="M442.26,68.41l-.99,23.38c69.47,24.08,78.68,27.03,166.2,42.43-95.32-37.85-129.69-51.76-165.21-65.81Z"/></g></g></svg>