<?xml version="1.0" encoding="UTF-8"?><svg id="Layer_1" xmlns="http://www.w3.org/2000/svg" viewBox="0 0 1078 257"><defs><style>.cls-1,.cls-2{fill:#fff;}.cls-2{font-family:FuturaPT-Medium, 'Futura PT';font-size:72.92px;}</style></defs><g><g><polygon class="cls-1" points="39.53 157.35 39.53 26.62 190.46 26.62 190.46 54.49 81.56 54.49 81.56 75.62 168.59 75.62 168.59 103.5 81.56 103.5 81.56 157.35 39.53 157.35"/><path class="cls-1" d="M190.14,26.94v27.23H81.24v21.77h87.03v27.23H81.24v53.85H39.85V26.94H190.14m.64-.64H39.21V157.67h42.67v-53.85h87.03v-28.52H81.88v-20.49h108.9V26.3h0Z"/></g><g><polygon class="cls-1" points="205.95 157.36 205.95 26.62 356.88 26.62 356.88 54.49 247.98 54.49 247.98 75.62 335 75.62 335 103.5 247.98 103.5 247.98 129.48 359.82 129.48 359.82 157.36 205.95 157.36"/><path class="cls-1" d="M356.56,26.94v27.23h-108.9v21.77h87.03v27.23h-87.03v26.63h111.85v27.23H206.27V26.94h150.29m.64-.64H205.63V157.68h154.52v-28.52h-111.85v-25.34h87.03v-28.52h-87.03v-20.49h108.9V26.3h0Z"/></g><g><rect class="cls-1" x="787.57" y="26.62" width="42.03" height="130.73"/><path class="cls-1" d="M829.28,26.94V157.03h-41.39V26.94h41.39m.64-.64h-42.67V157.67h42.67V26.3h0Z"/></g><g><polygon class="cls-1" points="994.89 157.35 945.31 114.5 895.72 157.35 843.59 157.35 919.24 91.99 843.59 26.62 895.72 26.62 945.31 69.47 994.89 26.62 1047.01 26.62 971.37 91.99 1047.01 157.35 994.89 157.35"/><path class="cls-1" d="M1046.15,26.94l-75.28,65.05,75.28,65.04h-51.14l-49.7-42.95-49.71,42.95h-51.15l75.28-65.04-75.28-65.05h51.15l49.71,42.95,49.7-42.95h51.14m1.72-.64h-53.11l-.18,.16-49.28,42.59-49.29-42.59-.18-.16h-53.11l1.3,1.13,74.72,64.56-74.72,64.56-1.3,1.13h53.11l.18-.16,49.29-42.59,49.28,42.59,.18,.16h53.11l-1.3-1.13-74.71-64.56,74.71-64.56,1.3-1.13h0Z"/></g></g><text class="cls-2" transform="translate(785.39 240.31)"><tspan x="0" y="0">ENERGY</tspan></text><g><path class="cls-1" d="M753.47,125.58s-38.38-6.34-94.44-28.53c-56.54-22.38-92.99-37.08-139.63-57.41l2.99,4.37c7.02,4.15,26.68,17.14,38.08,24.32-30.47-13.61-47.99-20.8-96.47-39.04-27.58-13.13-62.81,25.55-78.74,41,8.66-3.78,15.57-7.49,22.65-10.05,10.17-3.67,21.28-3.38,31.34,.62,56.74,22.55,136.59,55.53,200.26,78.92l-1.52-4.03c-13.22-7.02-28.47-14.65-40.19-22.69,47.03,19.48,120.78,48.67,120.78,48.67l34.9-36.15Z"/><path class="cls-1" d="M425.85,70.51l-.32,86.2-40.88-.33V86.69c16.7-7.96,29.83-14,41.2-16.18Z"/><path class="cls-1" d="M758.04,26.38l-.72,89.75c-16.66-2.31-30-6.57-35.97-9.4l.7-80.28,35.99-.06Z"/><path class="cls-1" d="M594.66,46.45c17.9,21.38,107.88,48.23,107.88,48.23l1.24-23.26s-60.47-5.07-109.12-24.97Z"/><path class="cls-1" d="M443.74,83.75v23.97c74.43,24.03,84.58,26.94,165.19,41.56-95.3-37.69-129.67-51.55-165.19-65.53Z"/></g></svg>