<?xml version="1.0" encoding="UTF-8"?><svg id="Layer_1" xmlns="http://www.w3.org/2000/svg" viewBox="0 0 1098 257"><defs><style>.cls-1{fill:#231f20;}</style></defs><g><g><polygon class="cls-1" points="45.96 142.66 45.96 11.93 196.89 11.93 196.89 39.8 87.99 39.8 87.99 60.93 175.02 60.93 175.02 88.81 87.99 88.81 87.99 142.66 45.96 142.66"/><path class="cls-1" d="M196.57,12.25v27.23H87.67v21.77h87.03v27.23H87.67v53.85H46.28V12.25H196.57m.64-.64H45.64V142.98h42.67v-53.85h87.03v-28.52H88.31v-20.49h108.9V11.61h0Z"/></g><g><polygon class="cls-1" points="212.38 142.67 212.38 11.93 363.31 11.93 363.31 39.8 254.41 39.8 254.41 60.93 341.44 60.93 341.44 88.81 254.41 88.81 254.41 114.79 366.25 114.79 366.25 142.67 212.38 142.67"/><path class="cls-1" d="M362.99,12.25v27.23h-108.9v21.77h87.03v27.23h-87.03v26.63h111.85v27.23H212.7V12.25h150.29m.64-.64H212.06V142.99h154.52v-28.52h-111.85v-25.34h87.03v-28.52h-87.03v-20.49h108.9V11.61h0Z"/></g><g><rect class="cls-1" x="794" y="11.93" width="42.03" height="130.73"/><path class="cls-1" d="M835.71,12.25V142.34h-41.39V12.25h41.39m.64-.64h-42.67V142.98h42.67V11.61h0Z"/></g><g><polygon class="cls-1" points="1001.32 142.66 951.74 99.81 902.15 142.66 850.02 142.66 925.67 77.3 850.02 11.93 902.15 11.93 951.74 54.78 1001.32 11.93 1053.44 11.93 977.8 77.3 1053.44 142.66 1001.32 142.66"/><path class="cls-1" d="M1052.58,12.25l-75.28,65.05,75.28,65.04h-51.14l-49.7-42.95-49.71,42.95h-51.15l75.28-65.04L850.89,12.25h51.15l49.71,42.95,49.7-42.95h51.14m1.72-.64h-53.11l-.18,.16-49.28,42.59-49.29-42.59-.18-.16h-53.11l1.3,1.13,74.72,64.56-74.72,64.56-1.3,1.13h53.11l.18-.16,49.29-42.59,49.28,42.59,.18,.16h53.11l-1.3-1.13-74.71-64.56,74.71-64.56,1.3-1.13h0Z"/></g></g><g><path class="cls-1" d="M824.49,183.98h-19.4v12.32h18.81v7h-18.81v15.31h19.4v7h-26.83v-48.64h26.83v7Z"/><path class="cls-1" d="M834.11,225.62v-51.92l35.29,36.97v-33.69h7.44v51.63l-35.29-36.97v33.98h-7.44Z"/><path class="cls-1" d="M915.35,183.98h-19.4v12.32h18.81v7h-18.81v15.31h19.4v7h-26.83v-48.64h26.83v7Z"/><path class="cls-1" d="M933.65,176.98c5.91,0,9.7,.73,12.83,2.84,5.32,3.57,5.76,9.33,5.76,11.45,0,7-4.3,12.1-10.79,13.56l15.17,20.78h-8.97l-13.93-19.91h-1.31v19.91h-7.44v-48.64h8.68Zm-1.24,22.31h2.33c2.04,0,10.35-.22,10.35-7.95,0-6.85-6.49-7.51-10.14-7.51h-2.55v15.46Z"/><path class="cls-1" d="M989.07,200.32h20.05v.36c0,8.31-2.48,15.09-7.22,19.69-5.03,4.89-11.01,6.2-16.55,6.2-7.07,0-12.1-2.04-16.55-6.64-4.74-4.89-7.22-11.38-7.22-18.38,0-7.58,3.06-14.15,7.07-18.16,4.16-4.23,10.79-7.29,18.3-7.29,4.38,0,8.9,.95,12.69,3.06,4.01,2.26,6.49,5.1,7.88,7.29l-5.91,4.16c-1.46-2.04-3.65-4.23-5.98-5.54-2.7-1.6-5.62-2.11-8.6-2.11-6.34,0-10.43,2.62-12.83,5.03-3.21,3.21-5.18,8.39-5.18,13.64,0,4.89,1.82,9.77,5.03,13.2,3.35,3.57,7.51,4.89,12.18,4.89,4.23,0,7.73-1.24,10.87-4.3,2.7-2.62,3.79-5.47,4.08-8.24h-12.1v-6.85Z"/><path class="cls-1" d="M1028.59,204.62l-15.97-27.64h8.46l11.23,19.47,11.23-19.47h8.46l-15.97,27.64v21h-7.44v-21Z"/></g><g><path class="cls-1" d="M759.9,110.89s-38.38-6.34-94.44-28.53c-56.54-22.38-92.99-37.08-139.63-57.41l2.99,4.37c7.02,4.15,26.68,17.14,38.08,24.32-30.47-13.61-47.99-20.8-96.47-39.04-27.58-13.13-62.81,25.55-78.74,41,8.66-3.78,15.57-7.49,22.65-10.05,10.17-3.67,21.28-3.38,31.34,.62,56.74,22.55,136.59,55.53,200.26,78.92l-1.52-4.03c-13.22-7.02-28.47-14.65-40.19-22.69,47.03,19.48,120.78,48.67,120.78,48.67l34.9-36.15Z"/><path class="cls-1" d="M432.28,55.82l-.32,86.2-40.88-.33V72c16.7-7.96,29.83-14,41.2-16.18Z"/><path class="cls-1" d="M764.47,11.69l-.72,89.75c-16.66-2.31-30-6.57-35.97-9.4l.7-80.28,35.99-.06Z"/><path class="cls-1" d="M601.09,31.76c17.9,21.38,107.88,48.23,107.88,48.23l1.24-23.26s-60.47-5.07-109.12-24.97Z"/><path class="cls-1" d="M450.17,69.06v23.97c74.43,24.03,84.58,26.94,165.19,41.56-95.3-37.69-129.67-51.55-165.19-65.53Z"/></g></svg>